# xmcd
#
# Track frame offsets: 
#        150
#        11542
#        22762
#        34972
#        45670
#        56745
#        68730
#        77175
#        86662
#        97385
#        109195
#        119570
#        129737
#        141435
#        151415
#        162835
#        174312
#        185400
#        198200
#        212012
#
# Disc length: 2971 seconds
#
# Revision: 2
# Processed by: cddbd v1.5.2PL0 Copyright (c) Steve Scherf et al.
# Submitted via: ExactAudioCopyFreeDBPlugin 1.0
#
DISCID=190b9914
DTITLE=Various Artist - Crescent City Soul:  The Big Beat of Dave Bar
DTITLE=tholomew
DYEAR=2002
DGENRE=Rhythm and Blues
TTITLE0=Chris Kenner - Sick and Tired
TTITLE1=Dave Bartholomew - The Monkey
TTITLE2=Smiley Lewis - Blue Monday
TTITLE3=Dave Bartholomew - Four Winds
TTITLE4=Bobby Mitchell - I'm Gonna Be a Wheel Someday
TTITLE5=Dave Bartholomew - Country Boy Goes Home
TTITLE6=Fats Domino - I Hear You Knocking
TTITLE7=Dave Bartholomew - Shrimp and Gumbo
TTITLE8=The Bees - Toy Bell
TTITLE9=The Spiders - Witchcraft
TTITLE10=Shirley and Lee - I'm Gone
TTITLE11=Dave Bartholomew - Would You
TTITLE12=Jewel King - 3 X 7 =21
TTITLE13=Smiley Lewis - Someday You'll Want Me
TTITLE14=Archibald - Great Big Eyes (Those Little Reds)
TTITLE15=Dave Bartholomew - That's How You Got Killed Before
TTITLE16=Smiley Lewis - One Night
TTITLE17=Dave Barholomew - Who Drank My Beer While I Was in the Rear
TTITLE18=Tommy Ridgley - Shrewsbury Blues
TTITLE19=Dave Bartholomew - Country Gal
EXTD=
EXTT0=
EXTT1=
EXTT2=
EXTT3=
EXTT4=
EXTT5=
EXTT6=
EXTT7=
EXTT8=
EXTT9=
EXTT10=
EXTT11=
EXTT12=
EXTT13=
EXTT14=
EXTT15=
EXTT16=
EXTT17=
EXTT18=
EXTT19=
PLAYORDER=
